<?xml version="1.0" encoding="UTF-8"?>
<svg id="Layer_2" data-name="Layer 2" xmlns="http://www.w3.org/2000/svg" viewBox="0 0 792.76 476.21">
  <defs>
    <style>
      .cls-1 {
        fill: #fff;
      }

      .cls-2 {
        fill: #d00;
      }
    </style>
  </defs>
  <g id="Logo_Guidelines" data-name="Logo Guidelines">
    <g id="Logo">
      <rect class="cls-1" x="228.19" y="116.62" width="112" height="56" rx="28" ry="28" transform="translate(-19.02 243.31) rotate(-45)"/>
      <path class="cls-1" d="M792.73,208.46c-.79-53.44-44.34-96.53-97.98-96.53-15.03,0-29.26,3.39-41.99,9.43v-6.8s0-19.69,0-19.69v-7.18s-.02,0-.02,0V.04s-26.54,0-26.54,0c-.97-.05-1.96-.05-2.94,0-6.68.35-13.24,3.08-18.34,8.17-5.29,5.29-8,12.16-8.17,19.09v60.38s0,26.88,0,26.88v53.44s0,0,0,0v40.45h-.01s0,127.44,0,127.44h29.48c6.68-.35,13.24-3.08,18.34-8.17,5.47-5.47,8.19-12.63,8.19-19.8v-98.14c.09-23.13,18.85-41.85,41.99-41.85,23.19,0,41.99,18.8,42,41.99v88.56s0,0,0,0v37.4s29.48,0,29.48,0c6.67-.35,13.24-3.08,18.33-8.17,5.47-5.47,8.2-12.63,8.2-19.8v-99.47s-.03,0-.03,0Z"/>
      <path class="cls-1" d="M568.79,127.48V.04h-26.54c-.97-.05-1.96-.05-2.94,0-6.68.35-13.24,3.08-18.34,8.17-5.29,5.29-8,12.16-8.17,19.09v140.7h.01v40.53h-.01v127.44h26.54c.97.05,1.96.05,2.94,0,6.68-.35,13.24-3.08,18.34-8.17,5.29-5.29,8-12.16,8.17-19.09v-140.7h-.01v-40.53h.01Z"/>
      <path class="cls-1" d="M204.79,112.02c-61.86,0-112,50.14-112,112s50.14,112,112,112,112-50.14,112-112-50.14-112-112-112ZM204.79,280.02c-30.93,0-56-25.07-56-56s25.07-56,56-56,56,25.07,56,56-25.07,56-56,56Z"/>
      <path class="cls-1" d="M456.79,112.01c-61.86,0-112,50.14-112,112s50.14,112,112,112,112-50.14,112-112-50.14-112-112-112ZM456.79,280c-30.93,0-56-25.07-56-56s25.07-56,56-56,56,25.07,56,56-25.07,56-56,56Z"/>
      <path class="cls-1" d="M218.74,280h-13.99v56h14c23.25,0,42.1,18.85,42.1,42.1s-18.85,42.1-42.1,42.1h-27.99c-22.77,0-41.3-18.07-42.07-40.66.39-7.64-2.33-15.41-8.16-21.25-10.93-10.93-28.66-10.93-39.6,0-5.47,5.47-8.2,12.63-8.2,19.8h0c0,54.18,43.92,98.1,98.1,98.1h27.91c54.18,0,98.1-43.92,98.1-98.1h0c0-54.18-43.92-98.1-98.1-98.1Z"/>
      <path class="cls-2" d="M157,27.42c-6.61-6.61-15.7-9.22-24.27-7.84v-.02c-.19.04-.37.08-.56.11-.41.07-.81.16-1.22.25C65.46,33.5,13.91,85.18.58,150.76h0c-1.83,8.92.7,18.55,7.62,25.47,10.93,10.93,28.66,10.93,39.6,0,3.91-3.91,6.42-8.7,7.53-13.73h.03c8.7-43.84,42.99-78.46,86.65-87.66v-.03c5.49-.95,10.76-3.54,15-7.78,10.93-10.93,10.93-28.66,0-39.6Z"/>
    </g>
  </g>
</svg>